<?xml version="1.0" standalone="no"?>
<!DOCTYPE svg PUBLIC "-//W3C//DTD SVG 20010904//EN"
 "http://www.w3.org/TR/2001/REC-SVG-20010904/DTD/svg10.dtd">
<svg version="1.0" xmlns="http://www.w3.org/2000/svg"
 width="260.000000pt" height="260.000000pt" viewBox="0 0 260.000000 260.000000"
 preserveAspectRatio="xMidYMid meet">
<metadata>
Created by potrace 1.11, written by Peter Selinger 2001-2013
</metadata>
<g transform="translate(0.000000,260.000000) scale(0.100000,-0.100000)"
fill="#000000" stroke="none">
<path d="M0 1300 l0 -1300 1300 0 1300 0 0 1300 0 1300 -1300 0 -1300 0 0
-1300z m530 360 l0 -210 210 0 210 0 0 210 0 210 100 0 100 0 0 -520 0 -520
-100 0 -100 0 0 220 0 220 -210 0 -210 0 0 -220 0 -220 -95 0 -95 0 0 520 0
520 95 0 95 0 0 -210z m1170 -75 c68 -156 125 -283 126 -282 1 1 56 128 122
282 l121 280 120 3 121 3 0 -521 0 -520 -95 0 -95 0 -2 341 -3 341 -101 -228
-101 -229 -89 -3 -89 -2 -100 225 -100 226 -3 -336 -2 -335 -95 0 -95 0 0 520
0 520 118 0 118 0 124 -285z"/>
</g>
</svg>
