<?xml version="1.0" standalone="no"?>
<!DOCTYPE svg PUBLIC "-//W3C//DTD SVG 20010904//EN"
 "http://www.w3.org/TR/2001/REC-SVG-20010904/DTD/svg10.dtd">
<svg version="1.0" xmlns="http://www.w3.org/2000/svg"
 width="260.000000pt" height="260.000000pt" viewBox="0 0 260.000000 260.000000"
 preserveAspectRatio="xMidYMid meet">
<metadata>
Created by potrace 1.11, written by Peter Selinger 2001-2013
</metadata>
<g transform="translate(0.000000,260.000000) scale(0.100000,-0.100000)"
fill="#000000" stroke="none">
<path d="M2144 2318 c3 -13 6 -175 6 -360 0 -219 4 -338 10 -338 6 0 10 127
10 360 0 325 -2 360 -16 360 -12 0 -15 -6 -10 -22z"/>
<path d="M1785 2214 c-61 -31 -126 -98 -157 -162 l-23 -47 -65 4 c-82 4 -144
27 -135 50 29 72 5 119 -66 128 -24 3 -42 3 -39 0 3 -3 17 -7 32 -9 34 -5 68
-35 68 -60 0 -10 -7 -33 -16 -50 l-16 -31 -121 7 c-66 4 -127 10 -135 15 -20
11 49 66 110 87 56 18 71 34 32 34 -39 0 -128 -55 -165 -101 l-31 -40 10 -77
c12 -89 21 -135 28 -141 11 -11 12 8 3 50 -6 26 -9 71 -7 100 l3 54 70 -2
c125 -5 319 -24 370 -37 l50 -13 -3 -46 c-2 -29 0 -47 7 -47 6 0 10 3 9 8 -1
4 4 24 11 46 13 37 15 38 50 32 21 -3 104 -11 185 -17 128 -9 150 -8 170 5 39
25 70 84 70 137 1 41 -3 51 -35 82 -39 38 -117 67 -178 67 -20 0 -59 -12 -86
-26z m223 -34 c51 -29 63 -59 47 -123 -19 -75 -36 -87 -119 -87 -91 0 -288 20
-300 30 -14 13 43 106 95 155 27 26 49 44 49 40 0 -3 8 -1 18 5 30 19 162 7
210 -20z"/>
<path d="M200 2171 c0 -13 50 -53 95 -76 22 -11 45 -25 52 -32 7 -6 30 -17 50
-23 21 -7 43 -17 49 -22 22 -17 125 -38 186 -38 72 0 70 13 -2 17 -106 5 -227
51 -362 139 -38 24 -68 40 -68 35z"/>
<path d="M2207 2074 c-19 -19 -1 -25 71 -22 43 2 77 7 77 13 0 11 -137 20
-148 9z"/>
<path d="M780 2034 l-25 -24 23 0 c12 0 22 -4 22 -9 0 -15 -82 -180 -119 -238
-18 -29 -45 -62 -61 -73 -28 -20 -28 -20 -101 0 -41 10 -84 22 -96 26 -33 9
-28 -11 5 -24 65 -25 103 -33 149 -31 41 3 53 8 85 42 42 43 156 265 165 321
7 43 -10 47 -47 10z"/>
<path d="M1600 1819 c0 -26 78 -89 109 -89 22 0 10 18 -21 31 -18 7 -45 27
-60 43 -19 20 -28 25 -28 15z"/>
<path d="M1108 1790 c5 -13 14 -26 20 -28 19 -6 14 13 -8 33 -20 18 -21 18
-12 -5z"/>
<path d="M1764 1715 c23 -17 46 -20 46 -5 0 6 -3 10 -7 11 -5 0 -19 2 -33 5
-24 4 -24 3 -6 -11z"/>
<path d="M410 1013 c1 -5 -2 -218 -5 -475 -3 -267 -1 -468 4 -468 5 0 12 116
16 258 5 166 11 262 19 271 8 11 8 15 -1 18 -10 4 -13 53 -13 204 0 126 -4
199 -10 199 -5 0 -10 -3 -10 -7z"/>
<path d="M535 985 c-5 -2 -22 -6 -37 -9 -54 -12 -29 -27 35 -21 34 3 68 2 75
-3 21 -14 52 -118 52 -175 0 -45 -4 -57 -27 -79 -16 -14 -52 -36 -80 -48 -61
-26 -71 -43 -16 -28 46 13 107 51 127 80 34 48 10 209 -39 262 -22 24 -57 32
-90 21z"/>
<path d="M1381 944 c-32 -28 -42 -46 -51 -89 -11 -54 -3 -95 20 -95 19 0 25
-2 36 -11 18 -14 63 7 76 36 12 26 28 33 28 13 1 -7 7 -26 15 -43 15 -30 15
-29 10 20 -14 123 -31 138 -59 50 -13 -42 -23 -56 -41 -61 -39 -10 -65 11 -65
54 1 59 44 140 75 140 5 0 11 5 13 11 7 22 -19 10 -57 -25z"/>
<path d="M922 952 c-47 -20 -90 -57 -78 -69 4 -4 13 0 20 9 16 21 93 57 122
58 15 0 32 -15 55 -51 37 -58 53 -50 18 8 -40 68 -62 75 -137 45z"/>
<path d="M782 890 c-1 -14 3 -43 7 -65 l9 -40 0 35 c0 19 -4 49 -8 65 -7 27
-8 28 -8 5z"/>
<path d="M830 801 c0 -25 -3 -28 -22 -23 -19 5 -21 2 -15 -24 3 -16 9 -57 13
-91 4 -41 11 -63 19 -63 19 0 28 54 20 108 -5 26 -7 64 -6 85 2 20 0 37 -3 37
-3 0 -6 -13 -6 -29z"/>
<path d="M1084 813 c2 -10 10 -37 17 -60 13 -45 29 -57 29 -23 0 28 -30 100
-42 100 -5 0 -7 -8 -4 -17z"/>
<path d="M1522 695 c-1 -11 3 -38 7 -60 l9 -40 0 35 c0 19 -4 46 -8 60 -6 20
-8 21 -8 5z"/>
<path d="M166 562 c-21 -42 5 -68 52 -51 25 9 31 49 7 49 -8 0 -15 -7 -15 -15
0 -8 -7 -15 -15 -15 -18 0 -20 31 -3 48 9 9 9 12 0 12 -6 0 -18 -13 -26 -28z"/>
<path d="M1511 543 c-19 -47 -66 -71 -180 -92 -100 -18 -120 -25 -108 -37 9
-9 136 15 168 32 15 8 37 14 49 14 55 0 98 47 88 97 -3 14 -7 10 -17 -14z"/>
</g>
</svg>
